<svg width="20" height="20" viewBox="0 0 20 20" fill="none" xmlns="http://www.w3.org/2000/svg">
    <path fill-rule="evenodd" clip-rule="evenodd"
    d="M11.2856 18.5586C11.6265 18.2173 11.8184 17.7549 11.8184 17.2729V11.8184H17.2729C17.5874 11.8184 17.8936 11.7368 18.1631 11.585C18.3066 11.5044 18.4399 11.4038 18.5586 11.2856C18.8994 10.9448 19.0908 10.4824 19.0908 10C19.0908 9.51758 18.8994 9.05518 18.5586 8.71436C18.2173 8.37354 17.7549 8.18164 17.2729 8.18164H11.8184V2.72705C11.8184 2.24512 11.6265 1.78271 11.2856 1.44141C10.9448 1.10059 10.4824 0.90918 10 0.90918C9.65723 0.90918 9.3252 1.00537 9.03906 1.18359C8.92236 1.25635 8.81299 1.34277 8.71436 1.44141C8.37354 1.78271 8.18164 2.24512 8.18164 2.72705V8.18164H2.72705C2.24512 8.18164 1.78271 8.37354 1.44141 8.71436C1.21729 8.93848 1.05762 9.21533 0.974609 9.51562C0.931641 9.67188 0.90918 9.83496 0.90918 10C0.90918 10.1885 0.938477 10.374 0.994629 10.5503C1.08154 10.8252 1.23389 11.0781 1.44141 11.2856C1.78271 11.6265 2.24512 11.8184 2.72705 11.8184H8.18164V17.2729C8.18164 17.7549 8.37354 18.2173 8.71436 18.5586C9.05518 18.8994 9.51758 19.0908 10 19.0908C10.3052 19.0908 10.6025 19.0142 10.8662 18.8716C11.019 18.7886 11.1606 18.6836 11.2856 18.5586Z"
    fill="#ffffff"
    >
    </path>
</svg>