<?xml version="1.0" standalone="no"?>
<!DOCTYPE svg PUBLIC "-//W3C//DTD SVG 20010904//EN"
 "http://www.w3.org/TR/2001/REC-SVG-20010904/DTD/svg10.dtd">
<svg version="1.0" xmlns="http://www.w3.org/2000/svg"
 width="1482.000000pt" height="212.000000pt" viewBox="0 0 1482.000000 212.000000"
 preserveAspectRatio="xMidYMid meet">

<g transform="translate(0.000000,212.000000) scale(0.100000,-0.100000)"
fill="#000000" stroke="none">
<path d="M10635 1820 c-10 -11 -28 -20 -39 -20 -40 0 -66 -28 -66 -70 0 -34
-4 -41 -43 -63 -151 -89 -208 -260 -157 -470 31 -127 42 -147 85 -147 19 0 54
-11 79 -24 25 -13 51 -26 57 -28 7 -2 -4 -27 -29 -64 -23 -33 -60 -99 -83
-147 -35 -74 -47 -90 -77 -102 -31 -14 -34 -18 -27 -42 12 -41 9 -141 -4 -198
-7 -27 -15 -94 -18 -147 -5 -99 4 -148 52 -260 l15 -38 329 0 328 0 26 58 c62
139 70 211 42 360 -14 75 -14 85 5 166 11 48 20 88 20 90 0 2 -23 12 -51 22
-49 18 -52 21 -100 116 -28 53 -66 116 -84 140 -19 24 -35 45 -35 48 0 12 109
60 137 60 27 0 30 4 46 58 52 177 56 252 21 357 -26 75 -58 121 -122 170 -52
41 -58 49 -54 76 6 39 -29 79 -71 79 -16 0 -40 9 -54 20 -17 13 -41 20 -68 20
-29 0 -47 -6 -60 -20z"/>
<path d="M6573 1761 c-99 -55 -133 -109 -155 -249 -12 -78 -15 -85 -43 -99
-41 -22 -56 -43 -49 -73 14 -62 81 -81 123 -36 25 27 22 53 -10 95 -20 25 -21
23 34 92 19 25 88 69 107 69 21 0 72 -76 94 -137 9 -24 13 -71 12 -119 -3
-130 -51 -237 -118 -265 -28 -11 -29 -14 -13 -25 13 -10 16 -21 11 -48 -8 -42
-1 -44 50 -15 20 11 40 17 44 12 6 -7 25 -71 47 -159 4 -20 0 -22 -66 -26 -79
-6 -101 -19 -131 -78 -10 -20 -21 -57 -25 -83 -5 -35 -14 -53 -31 -64 -28 -18
-32 -60 -8 -70 27 -10 49 11 47 47 -1 24 7 39 35 66 37 33 69 50 78 41 3 -3
-11 -34 -30 -70 -20 -36 -36 -72 -36 -81 0 -9 -9 -21 -20 -28 -26 -17 -26 -54
1 -68 33 -18 52 5 45 54 -6 40 -5 42 50 83 31 24 60 40 65 38 4 -3 7 -37 5
-75 -2 -61 -6 -72 -29 -94 -32 -30 -34 -42 -8 -56 35 -18 54 -2 47 40 -5 34 5
59 39 96 5 6 17 21 25 33 21 31 43 27 36 -7 -3 -15 -24 -124 -46 -242 -22
-118 -42 -225 -45 -237 -4 -19 -1 -23 19 -23 30 0 27 -8 66 200 46 242 45 240
76 174 16 -34 16 -37 1 -46 -23 -12 -21 -45 2 -58 41 -22 66 16 39 59 -9 14
-8 36 2 95 7 42 17 79 21 82 5 2 18 -14 30 -38 12 -23 33 -60 47 -81 23 -34
24 -42 14 -70 -8 -22 -9 -34 -1 -44 16 -19 47 -16 59 6 8 16 5 23 -14 38 -19
15 -24 30 -28 91 -6 77 -1 122 13 122 5 0 9 -5 9 -10 0 -6 16 -33 35 -60 39
-55 40 -62 23 -89 -16 -26 -3 -51 27 -51 30 0 43 25 27 51 -7 10 -12 38 -12
61 -1 24 -5 62 -9 86 -5 23 -5 45 -1 47 4 3 24 -13 44 -35 66 -74 52 -5 -19
92 -19 26 -52 56 -72 67 -21 10 -46 27 -55 37 -15 18 -14 23 33 87 l50 68 37
-31 37 -31 3 28 c5 36 19 53 45 53 21 0 21 0 -1 16 -66 46 -71 187 -13 319 5
11 12 31 15 45 6 27 121 150 140 150 6 0 22 -27 35 -60 13 -33 39 -83 57 -110
18 -28 28 -50 23 -50 -19 0 -59 -49 -59 -72 1 -28 29 -63 58 -72 15 -5 32 -1
52 14 43 31 41 72 -7 116 l-36 33 7 83 c3 46 13 108 21 138 24 88 21 104 -22
122 -183 76 -170 78 -312 -51 -37 -33 -68 -40 -77 -16 -7 18 49 131 83 167 30
32 26 47 -21 83 -31 23 -45 27 -93 26 -71 -1 -96 -18 -118 -76 -10 -25 -21
-45 -25 -45 -4 0 -10 -8 -13 -17 -3 -10 -20 -56 -37 -103 -17 -47 -34 -95 -37
-107 -8 -33 -20 -28 -29 10 -23 109 -159 337 -204 344 -8 2 -38 -10 -67 -26z"/>
<path d="M4895 1726 c-71 -14 -125 -39 -153 -69 -32 -33 -110 -193 -133 -271
-11 -38 -21 -88 -21 -112 0 -81 41 -171 87 -192 35 -16 37 -15 29 11 -4 13 14
-3 44 -38 29 -33 52 -67 52 -77 0 -19 -48 -38 -95 -38 -44 0 -60 -16 -90 -90
-14 -36 -43 -83 -63 -105 -43 -46 -56 -70 -72 -140 -7 -31 -23 -62 -42 -82
-29 -30 -30 -34 -24 -87 4 -31 5 -56 3 -56 -3 0 -22 7 -43 16 -58 24 -171 23
-214 -2 -73 -42 -38 -88 77 -100 77 -8 138 9 175 49 26 29 28 36 23 82 -6 44
-4 53 19 80 15 17 35 58 46 92 20 65 49 128 55 121 3 -2 -3 -26 -11 -53 -9
-28 -17 -86 -19 -131 -4 -94 -26 -153 -82 -215 -27 -30 -33 -43 -24 -49 14 -8
5 -16 -84 -73 -74 -48 -115 -117 -101 -172 l6 -25 145 0 c125 0 145 2 145 16
0 8 4 23 10 33 8 16 14 17 51 7 38 -10 43 -9 60 13 10 13 17 27 14 31 -3 5
-28 16 -55 25 -28 9 -50 18 -50 20 0 1 7 19 15 39 18 42 30 40 40 -6 l8 -32
24 48 24 47 32 -24 c52 -39 195 -120 300 -170 l98 -47 183 0 183 0 27 27 c23
23 26 31 20 73 -6 43 -4 48 17 53 39 11 66 8 79 -8 17 -21 79 -19 116 4 32 20
32 18 75 191 50 200 50 219 -4 250 -22 12 -35 12 -84 2 -31 -6 -65 -20 -75
-30 -11 -11 -26 -53 -35 -103 -10 -46 -19 -86 -20 -88 -2 -2 -21 1 -44 8 l-41
12 7 47 c5 41 3 50 -17 68 -41 38 -90 48 -176 34 -70 -11 -82 -11 -136 8 -72
24 -143 74 -156 108 -11 28 -13 107 -4 142 6 20 11 22 33 16 74 -23 206 22
298 100 22 20 46 36 51 36 18 0 32 26 21 37 -18 18 -3 30 42 36 51 7 72 24 47
38 -36 20 -38 42 -12 135 29 106 32 220 8 291 -34 101 -124 190 -222 218 -121
35 -277 43 -387 21z m-562 -1337 c46 -12 48 -32 5 -50 -59 -24 -176 -7 -165
24 11 33 89 46 160 26z"/>
<path d="M8645 1731 c-16 -5 -51 -9 -77 -10 l-48 -1 -37 -72 c-21 -40 -45 -90
-53 -110 -8 -21 -29 -52 -47 -70 -40 -43 -58 -80 -73 -152 -14 -68 -8 -123 21
-183 16 -34 31 -47 75 -68 30 -14 54 -28 54 -31 0 -3 -33 -2 -73 2 -130 12
-207 -39 -276 -182 -23 -46 -41 -91 -41 -99 0 -34 30 -74 65 -85 48 -16 88 -1
161 60 32 28 65 49 73 48 8 -2 19 -24 26 -50 17 -68 30 -80 79 -73 33 5 47 2
69 -15 27 -22 28 -22 21 -111 -5 -64 -4 -89 5 -89 6 0 11 7 11 15 0 8 5 14 12
12 7 -1 15 17 19 42 13 68 20 62 17 -14 l-3 -70 -95 -41 c-81 -35 -100 -48
-128 -88 -53 -73 -56 -162 -7 -184 31 -14 98 -16 142 -3 l31 9 -24 -45 c-13
-25 -24 -52 -24 -59 0 -12 51 -14 275 -14 272 0 276 0 322 24 27 14 68 33 93
42 66 26 98 51 119 92 22 44 41 148 41 223 0 30 7 86 16 125 18 76 13 124 -12
124 -8 0 -32 -11 -52 -25 -49 -33 -62 -32 -62 8 0 35 -7 65 -38 169 -11 37
-17 70 -12 73 9 6 35 -17 58 -51 11 -17 12 -16 7 11 -4 17 -25 49 -48 73 -23
23 -39 42 -37 42 3 0 39 -9 80 -20 86 -22 93 -23 86 -11 -4 5 0 11 6 14 23 7
-51 44 -115 57 -99 19 -128 31 -136 53 -5 14 -2 26 11 39 23 23 44 23 57 1 16
-28 13 -6 -4 26 -13 26 -13 30 5 46 37 34 32 126 -6 111 -8 -3 -16 0 -18 7 -2
6 -16 68 -32 136 l-29 124 -47 36 c-25 20 -52 48 -58 64 -19 42 -74 84 -132
102 -63 19 -171 27 -213 16z"/>
<path d="M13845 1669 c-38 -38 -47 -41 -87 -24 -13 5 -18 2 -18 -8 0 -9 -6
-19 -12 -23 -7 -4 -10 -4 -7 0 4 4 -4 19 -17 33 l-24 26 -30 -28 c-25 -24 -35
-27 -67 -22 -29 5 -42 2 -58 -13 -20 -19 -24 -19 -58 -5 l-37 15 0 -40 c0 -28
-4 -40 -14 -40 -8 0 -18 -9 -21 -21 -5 -16 -14 -19 -38 -17 -28 3 -32 0 -35
-24 -2 -19 -10 -28 -25 -30 -15 -2 -23 -12 -27 -33 -4 -24 -11 -30 -29 -29
-21 1 -22 -2 -16 -44 l7 -45 -26 17 c-31 20 -32 16 -6 -64 26 -80 25 -86 -5
-66 -27 18 -45 21 -45 8 0 -5 18 -37 40 -71 47 -72 49 -88 15 -97 -14 -3 -25
-9 -25 -13 0 -4 18 -25 41 -46 38 -37 40 -43 34 -82 -5 -35 -3 -43 14 -53 12
-6 21 -17 21 -25 0 -8 3 -15 8 -15 4 0 13 -4 20 -9 20 -12 -4 -55 -38 -68 -61
-23 -90 -129 -51 -190 42 -68 109 -76 281 -38 41 10 86 18 100 19 28 1 28 3
55 -256 23 -220 19 -210 91 -226 32 -7 141 -16 242 -19 l183 -6 -6 25 c-5 20
0 27 33 46 49 27 112 96 112 121 0 15 -24 74 -80 196 -5 11 -18 40 -29 65 -10
25 -30 70 -44 101 -26 60 -22 79 16 79 10 0 60 10 110 22 78 18 98 27 130 58
32 33 37 44 37 85 0 87 -56 155 -127 155 -34 0 -48 13 -58 53 -6 24 -5 27 19
27 30 0 32 7 9 54 -16 34 -16 36 8 55 23 19 24 19 5 40 -18 20 -18 22 -1 41
17 19 16 21 -19 56 -26 26 -35 42 -30 56 3 12 -1 27 -11 38 -13 15 -14 22 -5
40 14 27 13 29 -52 50 -40 13 -52 22 -50 34 2 10 -2 23 -8 30 -5 8 -8 20 -5
28 5 12 -8 17 -62 24 -67 9 -68 10 -68 39 -1 29 -3 30 -45 30 -41 0 -44 2 -52
33 -5 17 -12 32 -16 32 -4 -1 -25 -19 -47 -41z m-445 -939 c0 -5 -15 -10 -32
-9 -28 0 -30 2 -13 9 28 12 45 12 45 0z"/>
<path d="M3023 1678 c-37 -12 -93 -68 -120 -120 l-20 -37 -31 45 c-53 74 -119
103 -208 89 -118 -17 -210 -193 -177 -340 8 -34 5 -50 -20 -110 -25 -60 -30
-84 -31 -170 0 -58 5 -119 12 -146 l14 -47 -54 -73 c-107 -146 -189 -278 -195
-313 -7 -47 17 -76 63 -76 46 0 85 50 170 219 l71 140 39 -41 c52 -54 148
-116 201 -130 23 -5 48 -17 54 -24 7 -9 12 -53 12 -113 1 -95 -1 -103 -36
-175 -43 -86 -120 -162 -222 -221 l-60 -34 312 -1 311 0 32 43 c72 97 79 261
20 432 -17 50 -33 97 -36 107 -4 10 2 21 18 29 12 7 51 39 86 72 34 33 64 58
66 56 2 -2 32 -67 67 -144 91 -202 114 -235 167 -235 29 0 56 36 55 75 -1 41
-55 143 -160 302 l-74 113 16 86 c20 105 9 196 -37 292 -28 59 -29 65 -18 118
22 107 -8 211 -81 280 -64 61 -128 77 -206 52z"/>
<path d="M903 1626 c-74 -17 -145 -48 -189 -81 l-31 -24 -35 24 c-82 55 -150
69 -185 35 -71 -66 -49 -251 49 -402 45 -71 94 -101 155 -96 39 4 60 -1 111
-25 34 -16 95 -37 135 -46 66 -15 72 -19 75 -44 3 -25 0 -27 -30 -27 -42 0
-96 -27 -121 -61 -19 -27 -19 -28 2 -180 12 -85 25 -175 30 -202 7 -39 0 -81
-40 -258 -26 -116 -50 -217 -53 -225 -5 -12 31 -14 236 -14 l241 0 -6 32 c-3
18 -17 87 -32 153 -51 236 -50 227 -36 368 8 73 16 171 18 220 6 107 -4 127
-79 155 -43 16 -53 24 -53 43 0 20 8 24 76 39 42 9 109 32 149 52 69 33 74 34
102 20 118 -59 294 221 264 421 -8 55 -46 97 -87 97 -32 0 -100 -28 -148 -62
l-35 -25 -55 39 c-30 21 -84 48 -120 59 -85 27 -226 33 -308 15z"/>
<path d="M12230 1519 c-90 -36 -127 -146 -76 -227 13 -20 30 -43 39 -50 8 -7
18 -36 22 -64 8 -57 28 -110 57 -150 10 -16 17 -32 13 -38 -14 -22 -78 -22
-166 0 -91 22 -147 21 -180 -3 -62 -46 -79 -161 -33 -217 43 -50 72 -60 211
-66 70 -4 130 -8 132 -10 2 -2 -16 -97 -39 -211 -24 -114 -45 -220 -47 -234
-6 -32 51 -85 137 -129 64 -33 63 -30 43 -102 -4 -17 7 -18 136 -18 l140 0 3
28 c3 26 6 28 88 40 47 7 88 16 92 20 4 4 2 79 -3 167 -6 88 -12 218 -13 290
l-1 130 160 0 c144 1 164 3 201 22 45 24 74 71 74 120 -1 51 -34 108 -75 127
-35 17 -42 17 -99 3 -95 -25 -137 -28 -195 -17 -30 5 -57 12 -59 15 -3 2 11
22 31 45 42 46 64 93 79 170 6 30 19 64 28 75 87 99 77 210 -23 255 -50 23
-78 24 -132 5 -36 -13 -45 -12 -96 6 -45 17 -72 20 -135 16 -43 -3 -94 -8
-111 -12 -22 -5 -46 -2 -73 9 -45 18 -93 20 -130 5z"/>
<path d="M7214 446 c-11 -29 0 -51 26 -51 21 0 25 5 25 30 0 24 -5 31 -23 33
-13 2 -24 -3 -28 -12z"/>
</g>
</svg>
