<?xml version="1.0" standalone="no"?>
<!DOCTYPE svg PUBLIC "-//W3C//DTD SVG 20010904//EN"
 "http://www.w3.org/TR/2001/REC-SVG-20010904/DTD/svg10.dtd">
<svg version="1.0" xmlns="http://www.w3.org/2000/svg"
 width="2177.000000pt" height="2177.000000pt" viewBox="0 0 2177.000000 2177.000000"
 preserveAspectRatio="xMidYMid meet">
<metadata>
Created by potrace 1.14, written by Peter Selinger 2001-2017
</metadata>
<g transform="translate(0.000000,2177.000000) scale(0.100000,-0.100000)"
fill="#000000" stroke="none">
<path d="M10129 21105 c-15 -8 -125 -25 -255 -40 -697 -79 -1230 -186 -1868
-377 -971 -289 -1949 -759 -2790 -1340 -814 -564 -1591 -1298 -2187 -2068
-448 -578 -778 -1107 -1095 -1755 -476 -974 -761 -1902 -924 -3010 -22 -154
-47 -320 -55 -370 -25 -153 -37 -588 -32 -1135 6 -539 8 -584 58 -980 164
-1318 517 -2457 1100 -3553 1008 -1895 2605 -3425 4515 -4326 975 -460 1887
-730 2989 -886 132 -19 303 -44 380 -55 131 -20 185 -22 815 -23 714 -2 762 0
1160 49 1315 161 2343 467 3460 1029 628 317 1367 807 1919 1273 293 249 728
670 975 947 625 698 1132 1450 1537 2280 275 565 396 875 579 1480 177 588
317 1272 385 1880 15 132 33 252 41 267 21 41 21 1462 -1 1510 -8 18 -35 198
-60 403 -67 547 -117 824 -220 1234 -174 693 -381 1270 -688 1916 -584 1230
-1431 2339 -2482 3247 -236 203 -429 352 -747 576 -470 332 -775 512 -1368
811 -588 296 -926 428 -1578 616 -727 209 -1140 291 -1840 365 -114 12 -205
26 -222 35 -42 22 -1461 22 -1501 0z m1281 -380 c449 -13 1191 -122 1710 -250
689 -170 1397 -425 1985 -715 1464 -722 2702 -1785 3643 -3127 898 -1283 1479
-2811 1657 -4364 60 -527 75 -846 63 -1364 -13 -583 -60 -1026 -164 -1557
-380 -1939 -1315 -3680 -2705 -5043 -1237 -1212 -2773 -2068 -4439 -2473 -534
-130 -1256 -239 -1745 -263 -310 -15 -1143 -6 -1345 15 -813 85 -1508 230
-2203 460 -1734 575 -3273 1637 -4422 3051 -1054 1298 -1764 2876 -2025 4499
-29 182 -42 287 -80 626 -11 102 -25 225 -31 275 -17 147 -6 1303 15 1495 72
678 197 1326 365 1885 472 1574 1310 2967 2472 4110 533 524 940 842 1676
1311 401 256 709 422 1107 598 782 345 1514 570 2262 695 792 132 1300 163
2204 136z"/>
<path d="M10435 20410 c-2398 -106 -4730 -1191 -6339 -2950 -850 -929 -1452
-1886 -1871 -2975 -537 -1394 -729 -3011 -539 -4535 225 -1812 1031 -3568
2292 -4995 162 -183 577 -594 769 -762 1213 -1062 2710 -1811 4248 -2127 684
-140 1268 -193 2025 -183 511 7 792 28 1240 93 1456 212 2877 800 4115 1702
1130 823 2051 1896 2717 3167 665 1268 1012 2577 1046 3950 17 634 -16 1209
-99 1774 -288 1955 -1184 3704 -2660 5191 -162 163 -427 399 -657 584 -1564
1259 -3334 1939 -5352 2055 -254 15 -727 21 -935 11z m555 -886 c107 -24 154
-47 214 -104 61 -58 99 -132 123 -242 23 -104 22 -357 -1 -462 -59 -266 -162
-357 -440 -388 -56 -6 -107 -15 -113 -21 -10 -7 -13 -114 -13 -473 l0 -464
-146 0 -147 0 7 378 c14 810 56 1746 79 1769 34 34 300 39 437 7z m1309 -82
c71 -18 118 -34 125 -44 7 -12 -5 -89 -47 -290 -88 -418 -180 -1028 -214
-1412 -15 -174 -16 -201 -3 -224 19 -34 54 -42 114 -27 89 23 176 139 220 295
54 188 205 1042 254 1433 12 93 24 153 33 162 12 12 31 12 126 1 62 -7 119
-19 128 -26 19 -16 19 -62 -1 -310 -12 -158 -21 -212 -44 -286 -16 -50 -38
-156 -50 -235 -11 -79 -31 -202 -45 -274 -13 -71 -35 -197 -50 -278 -26 -155
-68 -332 -112 -477 -81 -269 -202 -351 -523 -354 -119 -1 -127 0 -171 26 -63
37 -125 108 -161 184 -50 106 -48 156 16 639 85 633 128 895 226 1384 18 86
40 142 58 141 4 -1 58 -13 121 -28z m-4106 -423 c118 -37 182 -102 298 -304
125 -219 219 -464 354 -919 92 -313 104 -436 60 -591 -66 -229 -195 -348 -507
-465 -75 -28 -90 -31 -103 -20 -54 45 -185 379 -365 930 -78 239 -205 604
-281 811 -76 207 -139 383 -139 392 0 48 264 166 419 188 78 11 191 2 264 -22z
m5994 -50 c143 -45 246 -102 329 -181 98 -94 128 -159 128 -283 0 -157 -76
-381 -187 -547 -67 -101 -130 -161 -203 -195 -87 -40 -148 -40 -301 -3 -72 17
-142 30 -155 28 -27 -4 -12 31 -235 -558 -90 -239 -171 -445 -179 -457 -19
-29 -59 -30 -167 -2 -91 23 -117 34 -117 52 0 22 232 621 332 857 94 219 521
1167 574 1273 30 58 44 60 181 16z m-7951 -781 c16 -12 76 -65 134 -118 58
-53 195 -175 305 -270 205 -178 415 -382 590 -574 54 -60 155 -155 224 -213
154 -128 382 -339 404 -374 15 -23 15 -28 0 -48 -21 -31 -171 -141 -191 -141
-8 0 -74 58 -146 128 -139 136 -481 422 -505 422 -11 0 -114 -69 -248 -167
-18 -13 -33 -32 -33 -42 0 -11 77 -179 170 -375 94 -197 170 -368 170 -381 0
-18 -19 -38 -79 -84 -92 -70 -118 -80 -149 -54 -12 10 -55 95 -96 188 -40 94
-116 262 -168 375 -53 113 -117 259 -143 325 -26 66 -112 253 -191 415 -78
162 -159 344 -180 403 -20 59 -68 171 -105 248 -38 78 -69 151 -69 164 0 17
27 43 113 109 122 93 145 101 193 64z m9606 -117 c151 -109 226 -176 266 -239
37 -57 62 -140 62 -202 0 -181 -186 -480 -399 -640 -84 -64 -145 -84 -241 -83
-93 1 -166 26 -278 94 -59 36 -90 49 -105 45 -30 -8 -485 -627 -599 -815 -57
-94 -69 -96 -196 -31 -78 40 -108 61 -110 76 -4 31 320 482 632 879 268 341
797 994 808 998 26 11 38 5 160 -82z m-4882 -1026 c352 -41 542 -102 769 -245
95 -59 468 -320 841 -589 670 -482 907 -637 1410 -920 560 -315 895 -771 1019
-1386 46 -226 71 -604 71 -1049 0 -399 -20 -740 -65 -1105 -8 -63 -14 -116
-12 -117 1 -1 60 -13 132 -27 229 -46 358 -132 488 -328 210 -317 283 -722
219 -1214 -36 -272 -102 -509 -202 -721 -125 -266 -309 -441 -540 -512 -106
-32 -210 -45 -277 -33 -74 14 -203 77 -273 136 -30 25 -57 45 -60 45 -3 0 -16
-30 -29 -68 -130 -372 -343 -842 -504 -1112 -186 -311 -458 -629 -651 -759
-43 -29 -79 -51 -81 -49 -4 5 -110 704 -150 993 -20 143 -60 415 -90 605 -29
190 -59 385 -65 433 -17 121 -30 135 -135 148 -125 15 -3653 7 -3687 -8 -15
-7 -34 -26 -43 -43 -16 -31 -100 -563 -170 -1070 -19 -146 -65 -457 -100 -692
-36 -235 -65 -432 -65 -438 0 -19 -22 -10 -129 54 -201 122 -387 296 -554 519
-130 172 -203 294 -346 577 -160 318 -219 451 -312 708 -40 111 -76 202 -79
202 -3 0 -30 -21 -60 -46 -161 -133 -346 -170 -533 -106 -201 70 -354 185
-462 348 -98 147 -225 478 -264 689 -28 147 -51 413 -51 584 0 448 196 887
478 1069 92 60 238 102 350 102 l44 0 -6 43 c-9 66 -44 425 -58 602 -18 216
-18 1046 0 1215 35 341 65 508 128 698 141 430 401 764 799 1024 253 166 510
277 819 353 77 19 140 36 141 37 1 2 7 53 14 113 41 393 259 713 678 993 234
157 564 295 803 337 208 36 593 41 850 10z m-6082 -92 c99 -82 102 -90 62
-154 -19 -28 -80 -113 -137 -187 -57 -75 -103 -139 -103 -144 0 -13 25 -35
241 -210 207 -168 293 -228 322 -228 9 0 69 52 134 116 137 136 154 148 185
138 35 -11 148 -124 148 -148 0 -12 -10 -35 -22 -52 -13 -17 -65 -86 -115
-154 -51 -67 -93 -127 -93 -131 0 -12 388 -303 475 -356 38 -24 77 -43 87 -43
10 0 43 34 79 83 125 165 214 267 233 267 26 0 196 -139 196 -161 0 -46 -215
-331 -364 -481 -93 -94 -134 -116 -181 -98 -53 20 -730 539 -915 700 -132 116
-309 260 -542 442 -262 205 -298 238 -298 266 0 23 46 82 275 352 172 203 209
240 241 240 12 0 53 -26 92 -57z m12235 -75 c170 -184 413 -536 405 -589 -2
-13 -29 -43 -63 -71 -84 -67 -111 -81 -134 -69 -17 10 -133 139 -254 284 -27
31 -55 57 -62 57 -14 0 -261 -188 -442 -337 -123 -100 -124 -106 -57 -208 80
-123 137 -234 130 -258 -6 -24 -150 -127 -176 -127 -19 0 -57 40 -184 193 -53
64 -98 117 -101 117 -2 0 -99 -81 -217 -181 -200 -169 -298 -265 -298 -293 0
-6 57 -81 126 -166 152 -186 158 -195 147 -214 -15 -26 -180 -146 -201 -146
-38 0 -241 242 -381 453 -59 91 -71 116 -71 151 0 23 7 52 16 65 32 45 633
537 919 751 160 120 406 310 549 424 183 146 266 206 284 206 17 0 38 -14 65
-42z m996 -1558 c21 -47 104 -226 186 -398 139 -292 147 -313 132 -330 -23
-25 -243 -126 -260 -119 -7 3 -51 58 -98 123 -46 65 -86 122 -89 126 -8 10
-733 -359 -1145 -582 -335 -181 -519 -270 -559 -270 -34 0 -67 30 -115 103
-52 81 -53 109 -3 141 56 35 521 280 1121 590 293 151 542 283 552 292 28 25
23 63 -21 174 -34 82 -39 104 -30 121 7 12 62 45 133 80 145 70 143 71 196
-51z m-14010 -6 c179 -42 410 -119 612 -204 305 -129 662 -333 764 -436 95
-97 160 -258 158 -394 -1 -154 -96 -458 -149 -482 -43 -20 -400 116 -794 302
-505 238 -628 293 -955 430 l-350 147 1 49 c2 62 60 232 109 321 92 164 277
298 419 302 16 1 100 -15 185 -35z m13826 -1786 c209 -602 344 -1267 385
-1903 13 -205 13 -659 0 -857 -122 -1810 -755 -3325 -1933 -4626 -145 -161
-544 -555 -556 -550 -5 1 -40 41 -79 88 l-70 84 227 226 c125 124 279 284 343
355 820 926 1341 1918 1628 3096 278 1145 278 2299 -1 3429 -68 275 -192 669
-288 912 -10 28 -9 29 92 88 l102 59 47 -119 c25 -66 72 -193 103 -282z
m-13848 296 c49 -14 91 -29 96 -33 4 -4 -20 -84 -53 -177 -133 -373 -302
-1050 -359 -1439 -54 -369 -62 -481 -66 -935 -5 -452 2 -612 35 -890 111 -915
348 -1704 749 -2485 374 -728 855 -1373 1431 -1918 74 -71 136 -136 138 -146
3 -20 -95 -211 -108 -211 -14 0 -485 473 -602 605 -724 818 -1231 1711 -1546
2725 -490 1572 -459 3169 91 4730 76 215 75 213 92 206 8 -3 54 -17 102 -32z
m8503 -5543 c81 -16 78 -7 159 -502 40 -244 106 -649 147 -899 86 -522 86
-489 -6 -593 -124 -138 -375 -252 -642 -291 -140 -20 -2245 -34 -2438 -16
-415 38 -740 188 -843 387 -24 45 -21 92 13 293 17 96 82 490 145 874 127 779
115 735 202 747 72 10 3211 9 3263 0z m2418 -1933 c10 -13 28 -155 97 -770 19
-169 40 -318 46 -330 46 -87 613 -850 741 -997 50 -57 49 -81 -4 -124 -68 -54
-196 -137 -212 -137 -8 0 -77 93 -156 210 -78 115 -232 333 -343 484 -111 151
-214 293 -228 314 -15 22 -42 51 -60 64 -40 30 -221 127 -629 338 -162 84
-301 158 -309 166 -20 18 -3 36 122 130 86 65 103 74 140 74 61 -1 95 -19 377
-204 139 -91 255 -164 258 -162 6 6 -22 243 -60 504 -32 224 -31 262 4 307 24
31 177 145 194 145 6 0 16 -6 22 -12z m-7738 -304 c103 -24 216 -85 356 -192
152 -117 167 -133 166 -171 -1 -30 -120 -220 -157 -251 -21 -17 -15 -21 -203
121 -77 59 -157 112 -178 119 -103 34 -253 -30 -303 -130 -28 -54 -31 -100
-15 -217 24 -183 14 -495 -22 -693 -23 -128 -80 -315 -125 -409 -48 -98 -141
-198 -228 -245 -97 -52 -250 -46 -397 15 -74 31 -421 257 -437 284 -5 10 0 31
18 63 46 83 120 187 135 189 8 2 67 -35 130 -82 63 -47 156 -106 205 -131 80
-41 96 -45 142 -42 65 6 113 37 180 121 128 158 141 243 98 612 -46 387 19
681 201 907 62 76 108 114 161 134 51 18 193 17 273 -2z m6362 -606 c20 -16
117 -248 111 -264 -2 -7 -59 -47 -125 -90 -66 -42 -122 -82 -124 -89 -9 -22
300 -694 536 -1164 143 -287 250 -529 250 -568 0 -32 -39 -70 -118 -116 -69
-40 -93 -45 -112 -22 -28 33 -522 1049 -710 1458 -82 179 -131 274 -146 284
-28 18 -56 13 -183 -34 -78 -29 -96 -33 -107 -21 -7 7 -38 69 -68 137 -40 91
-52 129 -46 142 5 9 45 29 87 45 148 52 219 82 453 191 299 140 276 131 302
111z m-5044 -73 c134 -32 217 -100 250 -205 26 -84 23 -341 -7 -478 -52 -245
-151 -518 -292 -802 -160 -325 -265 -485 -425 -647 -119 -121 -233 -157 -370
-115 -136 42 -194 103 -244 259 -39 120 -52 236 -40 339 8 77 91 409 147 593
57 188 206 493 341 696 89 135 235 281 322 324 106 51 205 62 318 36z m3795
-397 c17 -28 41 -189 33 -216 -4 -11 -19 -25 -34 -31 -52 -22 -224 -61 -315
-72 -51 -6 -98 -17 -106 -25 -12 -11 -12 -29 -2 -116 26 -215 96 -544 125
-583 10 -14 32 -14 194 -3 l183 12 24 -25 c21 -21 26 -37 31 -114 6 -80 4 -92
-12 -107 -12 -10 -90 -30 -199 -52 -98 -20 -182 -39 -187 -44 -6 -6 48 -319
73 -417 34 -133 74 -247 91 -256 12 -6 39 -5 85 6 38 9 131 27 207 40 183 32
176 36 200 -120 10 -64 16 -118 14 -119 -8 -7 -232 -66 -303 -81 -97 -20 -396
-46 -435 -38 -61 12 -66 27 -141 389 -90 437 -110 547 -154 844 -35 234 -87
539 -140 813 -14 70 -25 145 -25 167 0 69 15 73 465 135 298 41 310 42 328 13z
m-2314 -57 c90 -20 111 -35 111 -81 0 -51 -40 -245 -54 -258 -11 -12 -29 -11
-116 7 -179 37 -219 26 -291 -76 -59 -85 -95 -223 -164 -628 -104 -612 -104
-803 -2 -909 49 -51 105 -71 232 -81 44 -4 91 -14 104 -22 23 -15 24 -19 18
-98 -7 -100 -26 -152 -59 -160 -26 -7 -303 37 -388 61 -147 42 -235 120 -280
246 -31 88 -44 258 -30 403 22 253 130 861 186 1059 135 472 342 623 733 537z
m957 -85 c18 -14 19 -33 19 -658 1 -485 5 -706 17 -898 27 -407 32 -671 16
-693 -27 -36 -202 -51 -232 -21 -9 8 -16 16 -17 17 -12 30 -21 323 -28 887 -5
388 -15 850 -21 1027 -7 177 -10 329 -7 338 9 21 224 22 253 1z"/>
<path d="M10808 19248 c-34 -27 -49 -560 -17 -619 9 -18 18 -21 58 -17 59 6
158 54 185 91 19 26 21 45 25 190 4 183 -7 251 -47 299 -48 57 -162 88 -204
56z"/>
<path d="M7955 18734 c-105 -34 -112 -41 -96 -96 7 -24 92 -250 188 -503 97
-253 193 -509 213 -570 63 -183 170 -449 190 -469 16 -17 22 -18 50 -6 56 23
106 92 129 178 12 43 21 90 21 105 0 44 -79 351 -125 486 -102 298 -259 681
-324 790 -66 112 -113 128 -246 85z"/>
<path d="M14163 18638 c-32 -40 -183 -370 -213 -464 -29 -97 -27 -109 20 -128
76 -30 177 -10 239 47 48 45 151 300 151 375 0 52 -36 119 -80 148 -46 31
-102 41 -117 22z"/>
<path d="M6388 17648 c11 -18 84 -145 162 -283 78 -137 147 -256 152 -262 8
-10 27 1 78 45 95 79 96 85 24 146 -33 28 -137 126 -231 218 -168 164 -229
208 -185 136z"/>
<path d="M15633 17678 c-159 -185 -225 -273 -271 -364 l-21 -41 82 -31 c119
-45 124 -46 173 -27 50 19 114 89 189 205 86 134 101 191 71 264 -17 40 -82
96 -113 96 -15 0 -48 -30 -110 -102z"/>
<path d="M10215 16855 c-284 -40 -542 -142 -803 -315 -339 -225 -529 -454
-602 -726 -15 -55 -23 -122 -27 -222 -7 -172 -7 -171 -143 -197 -567 -104
-1097 -416 -1384 -814 -221 -307 -325 -612 -366 -1066 -52 -590 -20 -1346 85
-2030 42 -269 153 -814 171 -834 10 -11 159 73 198 112 62 62 67 88 50 259
-78 822 -69 1655 22 2223 97 596 255 923 598 1236 387 353 741 510 1181 526
319 12 488 -26 1255 -279 l364 -120 96 5 c88 4 118 12 410 110 738 247 879
280 1195 281 291 1 474 -37 700 -143 483 -228 884 -654 1030 -1095 88 -264
160 -718 186 -1171 23 -391 2 -1117 -46 -1571 -17 -168 -12 -195 49 -257 40
-39 168 -117 194 -117 11 0 51 158 101 401 200 966 248 2128 115 2799 -98 492
-366 892 -789 1177 -33 22 -180 109 -325 193 -414 238 -620 373 -1135 744
-792 570 -875 627 -1000 698 -167 95 -316 144 -547 179 -176 28 -678 36 -833
14z"/>
<path d="M13150 12225 l-435 -435 -430 429 -430 429 -195 -189 -195 -189 438
-438 439 -439 -431 -424 c-237 -233 -431 -427 -431 -431 0 -5 83 -93 184 -196
l185 -187 435 435 436 435 435 -435 435 -435 182 189 c101 104 184 192 186
195 1 3 -191 200 -428 436 l-430 430 435 435 435 435 -193 193 -192 192 -435
-435z"/>
<path d="M7982 12458 l-192 -193 437 -437 436 -437 -429 -424 -429 -424 190
-196 190 -195 430 429 c237 236 434 429 439 429 5 0 198 -191 429 -425 231
-234 423 -424 428 -423 17 6 379 360 379 371 1 7 -194 204 -432 439 l-433 427
438 438 437 438 -188 188 c-103 103 -192 187 -197 187 -6 0 -204 -194 -440
-430 l-430 -430 -430 430 c-237 236 -432 430 -435 430 -3 0 -92 -87 -198 -192z"/>
<path d="M10860 10342 c-43 -19 -132 -116 -208 -229 -59 -87 -350 -597 -358
-627 -10 -41 27 -42 157 -2 148 44 259 65 385 73 126 7 220 -6 441 -63 192
-49 208 -51 217 -28 12 32 -225 459 -364 654 -138 194 -206 250 -270 222z"/>
<path d="M3870 15042 c-27 -15 -47 -41 -87 -118 -29 -54 -53 -102 -53 -105 0
-9 65 -37 547 -233 238 -97 565 -232 728 -301 162 -69 302 -125 311 -125 35 0
55 106 34 182 -16 57 -94 153 -167 207 -100 74 -566 282 -978 437 -205 77
-275 89 -335 56z"/>
<path d="M8384 5075 c-49 -24 -181 -156 -260 -260 -125 -163 -252 -500 -353
-938 -45 -193 -52 -287 -26 -342 28 -57 95 -71 174 -35 101 46 153 110 310
385 207 360 298 588 356 890 35 179 20 262 -55 304 -49 27 -85 27 -146 -4z"/>
</g>
</svg>
